<?xml version="1.0" encoding="UTF-8" standalone="no"?>
<!-- Created with Inkscape (http://www.inkscape.org/) -->
<svg width="200vw" height="200vh">                                                                                                                                                     
  <rect width="190vw" height="190vh" style="fill:rgb(0,0,200);stroke-width:5;stroke:rgb(220,111,235)" />                                                                          <text x="20" y="45" font-family="Arial" fill="white" font-decoration="bold" font-size="16">Mining base 1</text>           
</svg> 
<svg
   xmlns:dc="http://purl.org/dc/elements/1.1/"
   xmlns:cc="http://creativecommons.org/ns#"
   xmlns:rdf="http://www.w3.org/1999/02/22-rdf-syntax-ns#"
   xmlns:svg="http://www.w3.org/2000/svg"
   xmlns="http://www.w3.org/2000/svg"
   xmlns:sodipodi="http://sodipodi.sourceforge.net/DTD/sodipodi-0.dtd"
   xmlns:inkscape="http://www.inkscape.org/namespaces/inkscape"
   width="200vw"
   height="200vh"
   viewBox="0 0 127 127"
   version="1.1"
   id="svg1028"
   inkscape:version="0.92.4 (5da689c313, 2019-01-14)"
   sodipodi:docname="LogoDUAPI_SVG.svg"
   inkscape:export-filename="C:\Users\Vaaal\Desktop\LogoDUAPI_PNG.png"
   inkscape:export-xdpi="300"
   inkscape:export-ydpi="300">
  <defs
     id="defs1022" />
  <sodipodi:namedview
     id="base"
     pagecolor="#ffffff"
     bordercolor="#666666"
     borderopacity="1.0"
     inkscape:pageopacity="0.0"
     inkscape:pageshadow="2"
     inkscape:zoom="0.7"
     inkscape:cx="300.97018"
     inkscape:cy="284.01044"
     inkscape:document-units="mm"
     inkscape:current-layer="layer1"
     showgrid="false"
     inkscape:pagecheckerboard="true"
     units="in"
     inkscape:window-width="1920"
     inkscape:window-height="1017"
     inkscape:window-x="-8"
     inkscape:window-y="-8"
     inkscape:window-maximized="1" />
  <metadata
     id="metadata1025">
    <rdf:RDF>
      <cc:Work
         rdf:about="">
        <dc:format>image/svg+xml</dc:format>
        <dc:type
           rdf:resource="http://purl.org/dc/dcmitype/StillImage" />
        <dc:title></dc:title>
      </cc:Work>
    </rdf:RDF>
  </metadata>
  <g
     inkscape:label="Layer 1"
     inkscape:groupmode="layer"
     id="layer1"
     transform="translate(0,-169.99998)">
    <g
       id="g1609"
       transform="translate(-0.37797688,1.9751267)">
      <path
         inkscape:export-ydpi="300"
         inkscape:export-xdpi="300"
         inkscape:export-filename="C:\Users\Vaaal\Desktop\Logo_testcouleur.png"
         sodipodi:nodetypes="csccccsccccccccc"
         id="path15359-0-3-1-8-3"
         d="m 51.796212,266.56318 c -4.767261,-0.0121 -5.168715,2.95108 -8.027569,2.18502 -1.89086,-0.50662 -8.397484,-5.62045 -8.739679,-5.81622 -1.785055,-1.02114 -20.782553,-30.67644 -20.790724,-32.73292 -0.008,-2.05649 21.39192,-35.42992 23.168782,-36.46526 3.419737,-0.94597 26.348538,-0.18053 38.383992,0.60113 0.210847,0.12069 8.24546,2.22649 8.87483,3.12241 4.699087,6.68929 11.823965,30.60152 11.831175,32.41511 0.008,2.05644 -18.646186,34.66559 -20.423068,35.70087 -0.999497,0.5824 -13.322969,0.88411 -24.232798,0.8552 z m 3.571756,-14.23919 c 12.028626,-6e-5 21.779698,-9.97887 21.779719,-22.28829 0,-12.30945 -9.751093,-22.28824 -21.779719,-22.28832 -12.028912,-3.2e-4 -21.780418,9.97859 -21.780438,22.28832 2e-5,12.30972 9.751526,22.28865 21.780438,22.28829 z"
         style="opacity:1;fill:#1e4265;fill-opacity:1;stroke:none;stroke-width:6.54424429;stroke-linecap:round;stroke-linejoin:round;stroke-miterlimit:0.30000001;stroke-dasharray:none;stroke-dashoffset:0;stroke-opacity:1;paint-order:fill markers stroke;enable-background:new"
         inkscape:connector-curvature="0" />
      <path
         inkscape:export-ydpi="300"
         inkscape:export-xdpi="300"
         inkscape:export-filename="C:\Users\Vaaal\Desktop\Logo_testcouleur.png"
         inkscape:connector-curvature="0"
         id="path15359-9-3-9"
         d="m 60.617768,269.42305 c -8.485425,-0.0225 -16.115998,-0.245 -16.896957,-0.6918 -1.785055,-1.02112 -20.697805,-33.48099 -20.705975,-35.53747 -0.008,-2.05647 18.646156,-34.66557 20.423037,-35.70092 1.776862,-1.0353 39.344682,-1.18454 41.129736,-0.16345 1.785055,1.02114 20.697811,33.48103 20.706001,35.53749 0.008,2.05649 -18.646182,34.66559 -20.423043,35.70091 -0.999518,0.58236 -13.322989,0.88406 -24.232799,0.85516 z m 3.526795,-14.10439 a 21.779843,22.288323 0 0 0 21.779719,-22.28828 21.779843,22.288323 0 0 0 -21.779719,-22.28832 21.779843,22.288323 0 0 0 -21.780445,22.28832 21.779843,22.288323 0 0 0 21.780445,22.28828 z"
         style="opacity:1;fill:#4387a9;fill-opacity:1;stroke:none;stroke-width:6.54424429;stroke-linecap:round;stroke-linejoin:round;stroke-miterlimit:0.30000001;stroke-dasharray:none;stroke-dashoffset:0;stroke-opacity:1;paint-order:fill markers stroke;enable-background:new" />
      <path
         inkscape:export-ydpi="300"
         inkscape:export-xdpi="300"
         inkscape:export-filename="C:\Users\Vaaal\Desktop\Logo_testcouleur.png"
         inkscape:connector-curvature="0"
         id="path15336-9-3-40-3"
         d="m 50.498777,214.67024 c -15.798615,0.0707 -29.744027,3.66405 -38.249451,10.76855 v 5.2e-4 c -15.5836982,13.01654 -7.2516894,32.85694 18.610139,44.31491 -9.219134,-7.27016 -13.401586,-15.81169 -6.27482,-22.16737 4.768767,-3.93926 7.970275,-5.67025 17.081568,-5.56818 6.704792,0.38559 15.505103,6.19522 23.202882,9.67781 0.02008,0.012 0.637904,-0.1504 1.463503,-0.37416 a 37.002343,17.142014 6.6120989 0 1 -3.322394,-1.37577 37.002343,17.142014 6.6120989 0 1 -6.290383,-24.76186 37.002343,17.142014 6.6120989 0 1 37.767758,-2.66739 c -0.62607,-0.39135 -1.389785,-0.79196 -2.317252,-1.20319 -5.3094,-1.58881 -14.619641,-3.67696 -19.316057,-4.55597 -7.610127,-1.42437 -15.17431,-2.12017 -22.355493,-2.08808 z"
         style="opacity:1;fill:#bfced7;fill-opacity:1;stroke:none;stroke-width:4.65733099;stroke-linecap:round;stroke-linejoin:round;stroke-miterlimit:0.30000001;stroke-dasharray:none;stroke-dashoffset:0;stroke-opacity:1;paint-order:fill markers stroke;enable-background:new" />
      <path
         inkscape:export-ydpi="300"
         inkscape:export-xdpi="300"
         inkscape:export-filename="C:\Users\Vaaal\Desktop\Logo_testcouleur.png"
         inkscape:connector-curvature="0"
         id="path15359-0-3-6-8"
         d="m 44.508015,193.30515 c -3.488682,0.0293 -6.117279,0.15663 -7.100993,0.42865 -1.776862,1.03534 -23.177156,34.40905 -23.168945,36.46554 0.008,2.05649 19.005812,31.71172 20.790867,32.7329 0.342195,0.19579 6.84904,5.3098 8.7399,5.81642 0.267876,0.0717 0.508825,0.10141 0.739171,0.11326 V 249.35274 C 37.983177,245.50293 33.58739,238.29717 33.58739,230.03596 c 0,-8.26112 4.395868,-15.4669 10.920625,-19.31674 z"
         style="opacity:1;fill:#1e4265;fill-opacity:1;stroke:none;stroke-width:6.54424429;stroke-linecap:round;stroke-linejoin:round;stroke-miterlimit:0.30000001;stroke-dasharray:none;stroke-dashoffset:0;stroke-opacity:1;paint-order:fill markers stroke;enable-background:new" />
      <path
         inkscape:export-ydpi="300"
         inkscape:export-xdpi="300"
         inkscape:export-filename="C:\Users\Vaaal\Desktop\Logo_testcouleur.png"
         inkscape:connector-curvature="0"
         id="path15336-9-33-5"
         d="m 56.719721,225.18495 a 37.002345,17.142014 6.6120989 0 0 6.290543,24.76206 37.002345,17.142014 6.6120989 0 0 40.416326,5.18185 L 89.789518,242.9915 a 9.8826158,4.5783021 6.6121018 0 1 -10.148068,-1.47901 9.8826158,4.5783021 6.6121018 0 1 -1.679712,-6.61348 9.8826158,4.5783021 6.6121018 0 1 13.800749,0.46625 9.8826158,4.5783021 6.6121018 0 1 3.627662,4.70799 l 25.917311,5.94093 A 37.002345,17.142014 6.6120989 0 0 108.39432,226.93014 37.002345,17.142014 6.6120989 0 0 56.719962,225.1846 Z"
         style="opacity:1;fill:#253640;fill-opacity:1;stroke:#bfced7;stroke-width:1.75889218;stroke-linecap:round;stroke-linejoin:round;stroke-miterlimit:0.30000001;stroke-dasharray:none;stroke-dashoffset:0;stroke-opacity:1;paint-order:fill markers stroke;enable-background:new" />
      <path
         inkscape:export-ydpi="300"
         inkscape:export-xdpi="300"
         inkscape:export-filename="C:\Users\Vaaal\Desktop\Logo_testcouleur.png"
         inkscape:connector-curvature="0"
         id="path15359-9-6-5-2-7-5"
         d="m 64.144563,196.67072 c -9.64121,0.0482 -19.115595,0.34129 -19.986635,0.84881 -1.776862,1.03534 -20.431253,33.64445 -20.423018,35.70091 0.008,2.05649 18.92092,34.51635 20.705955,35.5375 0.780959,0.44673 8.411552,0.66933 16.896957,0.69176 0.926283,0.002 1.867868,-0.001 2.806741,-0.004 V 255.31886 A 21.779843,22.288323 0 0 1 43.084192,233.05622 21.779843,22.288323 0 0 1 64.144563,210.80469 Z"
         style="opacity:1;vector-effect:none;fill:#4387a9;fill-opacity:1;stroke:none;stroke-width:6.54424429;stroke-linecap:round;stroke-linejoin:round;stroke-miterlimit:0.30000001;stroke-dasharray:none;stroke-dashoffset:0;stroke-opacity:1;paint-order:fill markers stroke;enable-background:new" />
    </g>
  </g>
</svg>
