<?xml version="1.0" encoding="iso-8859-1"?>
<!-- Generator: Adobe Illustrator 16.0.0, SVG Export Plug-In . SVG Version: 6.00 Build 0)  -->
<!DOCTYPE svg PUBLIC "-//W3C//DTD SVG 1.1//EN" "http://www.w3.org/Graphics/SVG/1.1/DTD/svg11.dtd">
<svg version="1.1" id="Capa_1" xmlns="http://www.w3.org/2000/svg" xmlns:xlink="http://www.w3.org/1999/xlink" x="0px" y="0px"
	 width="39.618px" height="39.618px" viewBox="0 0 39.618 39.618" style="enable-background:new 0 0 39.618 39.618;"
	 xml:space="preserve">
<g>
	<path d="M21.854,31.534c0.518,0.437,1.408,0.651,2.678,0.651l0.342,0.006v1.191h1.213v-1.191l0.371-0.006
		c1.271,0,2.164-0.229,2.675-0.684c0.514-0.451,0.766-1.24,0.766-2.369c0-1.043-0.231-1.764-0.698-2.156
		c-0.472-0.393-1.373-0.627-2.714-0.699l-0.397-0.014V23.6h0.283c0.985,0,1.479,0.394,1.479,1.183l0.006,0.192h1.737v-0.242
		c0-1.049-0.245-1.764-0.743-2.149c-0.494-0.385-1.418-0.575-2.765-0.575v-1.035h-1.213v1.035c-1.414,0-2.377,0.2-2.897,0.604
		c-0.521,0.4-0.778,1.148-0.778,2.24c0,1.125,0.26,1.894,0.774,2.301c0.521,0.408,1.483,0.615,2.901,0.615v2.888l-0.266-0.009
		c-0.727,0-1.197-0.098-1.404-0.285c-0.209-0.19-0.312-0.612-0.312-1.27v-0.186h-1.8l-0.011,0.361
		C21.083,30.344,21.341,31.1,21.854,31.534z M26.086,27.832c0.812,0,1.348,0.086,1.604,0.26c0.257,0.172,0.386,0.527,0.386,1.072
		c0,0.99-0.578,1.488-1.73,1.488h-0.26V27.832z M24.608,26.189c-1.064,0-1.592-0.44-1.592-1.325c0-0.845,0.529-1.265,1.598-1.265
		l0.26-0.012v2.615C24.704,26.196,24.62,26.189,24.608,26.189z M25.366,39.618c6.859,0,12.439-5.58,12.439-12.438
		c0-6.859-5.58-12.439-12.439-12.439c-6.862,0-12.441,5.58-12.441,12.439C12.924,34.038,18.503,39.618,25.366,39.618z
		 M25.366,16.739c5.756,0,10.438,4.687,10.438,10.438S31.12,37.615,25.366,37.615c-5.755,0-10.439-4.686-10.439-10.438
		C14.926,21.424,19.608,16.739,25.366,16.739z M25.366,36.711c5.258,0,9.533-4.275,9.533-9.533c0-5.26-4.275-9.537-9.533-9.537
		c-5.26,0-9.54,4.277-9.54,9.537C15.826,32.436,20.106,36.711,25.366,36.711z M25.366,18.442c4.816,0,8.734,3.917,8.734,8.736
		c0,4.816-3.918,8.734-8.734,8.734c-4.818,0-8.738-3.918-8.738-8.734C16.627,22.359,20.545,18.442,25.366,18.442z M19.367,18.204
		c-0.666,0.654-1.738,0.646-2.396-0.021l-4.623-4.706v23.272c0,1.246-1.012,2.259-2.258,2.259c-0.787,0-1.478-0.402-1.881-1.015
		c-0.404,0.61-1.096,1.015-1.883,1.015c-1.246,0-2.257-1.013-2.257-2.259V24.229c-0.179,0.062-0.366,0.103-0.564,0.103
		c-0.935,0-1.692-0.758-1.692-1.69V11.634c0-0.935,0.759-1.693,1.692-1.693h3.649l0.639,0.853L6.621,17.43l1.588,1.496l1.586-1.496
		l-1.172-6.636l0.639-0.853h3.65c0.453,0,0.889,0.183,1.207,0.507l5.268,5.363C20.043,16.476,20.034,17.548,19.367,18.204z
		 M4.358,3.715C4.358,1.285,6.082,0,8.211,0c2.127,0,3.851,1.285,3.851,3.715c0,2.428-1.724,5.072-3.851,5.072
		C6.081,8.788,4.358,6.143,4.358,3.715z"/>
</g>
<g>
</g>
<g>
</g>
<g>
</g>
<g>
</g>
<g>
</g>
<g>
</g>
<g>
</g>
<g>
</g>
<g>
</g>
<g>
</g>
<g>
</g>
<g>
</g>
<g>
</g>
<g>
</g>
<g>
</g>
</svg>
