<?xml version="1.0" encoding="iso-8859-1"?>
<!-- Generator: Adobe Illustrator 19.0.0, SVG Export Plug-In . SVG Version: 6.00 Build 0)  -->
<svg version="1.1" id="Layer_1" xmlns="http://www.w3.org/2000/svg" xmlns:xlink="http://www.w3.org/1999/xlink" x="0px" y="0px"
	 viewBox="0 0 435.21 435.21" style="enable-background:new 0 0 435.21 435.21;" xml:space="preserve">
<g>
	<g>
		<path d="M151.718,252.908c-11.182-11.182-18.099-26.634-18.099-43.694v16.128c0,17.065,6.917,32.512,18.099,43.699
			c8.156,8.156,18.601,14.003,30.269,16.594c-0.015-0.625-0.061-1.244-0.061-1.869v-14.275
			C170.278,266.89,159.859,261.053,151.718,252.908z"/>
		<path d="M257.206,115.41v0.203c0-0.068,0.005-0.135,0.005-0.203H257.206z"/>
		<circle cx="102.72" cy="350.582" r="30.899"/>
		<path d="M195.412,193.336c0.906,0,1.782-0.097,2.678-0.133c0.333-0.445,0.63-0.829,0.932-1.193
			c12.186-14.858,29.373-24.279,48.159-26.788c6.318-9.692,10.025-21.248,10.025-33.679v-15.93
			c-0.11,34.036-27.731,61.596-61.793,61.596c-17.065,0-32.512-6.917-43.699-18.099c-11.182-11.182-18.099-26.634-18.099-43.699
			v16.128c0,17.065,6.917,32.512,18.099,43.699C162.895,186.419,178.348,193.336,195.412,193.336z"/>
		<path d="M257.211,138.86c0,9.277-2.104,18.043-5.765,25.943c1.643-0.123,3.292-0.256,4.956-0.276
			c0.486-3.118,0.809-6.287,0.809-9.539V138.86z"/>
		<path d="M195.412,169.887c34.13,0,61.798-27.669,61.798-61.798V91.96c0,34.13-27.669,61.798-61.798,61.798
			c-17.065,0-32.512-6.917-43.699-18.099c-11.182-11.182-18.099-26.634-18.099-43.699v16.128c0,17.065,6.917,32.512,18.099,43.699
			C162.895,162.97,178.348,169.887,195.412,169.887z"/>
		<path d="M257.211,162.314c0,0.737-0.082,1.449-0.108,2.176c0.031,0,0.067-0.005,0.108-0.005V162.314z"/>
		<path d="M293.332,132.434c0.701,0.573,1.439,1.075,2.156,1.613c0.891,0.671,1.766,1.362,2.698,1.981
			c0.87,0.584,1.777,1.091,2.673,1.623c0.835,0.497,1.649,1.024,2.509,1.485c0.911,0.486,1.853,0.901,2.78,1.341
			c0.896,0.425,1.782,0.87,2.703,1.254c0.901,0.374,1.818,0.671,2.734,0.998c0.988,0.358,1.966,0.732,2.975,1.039
			c0.906,0.276,1.833,0.476,2.749,0.707c1.034,0.261,2.058,0.553,3.118,0.763c1.055,0.21,2.12,0.333,3.185,0.486
			c0.932,0.133,1.843,0.312,2.79,0.404c1.976,0.195,3.958,0.297,5.944,0.302c0.051,0,0.097,0.005,0.148,0.005
			c19.261,0,36.46-8.817,47.795-22.636c0.573-0.696,1.065-1.428,1.603-2.145c0.676-0.896,1.367-1.777,1.997-2.714
			c0.579-0.865,1.08-1.761,1.608-2.647c0.507-0.845,1.034-1.669,1.5-2.539c0.486-0.906,0.896-1.838,1.331-2.765
			c0.425-0.901,0.875-1.787,1.26-2.714c0.374-0.901,0.671-1.818,0.998-2.734c0.358-0.988,0.732-1.966,1.039-2.975
			c0.276-0.906,0.476-1.833,0.707-2.749c0.261-1.034,0.553-2.058,0.763-3.118c0.21-1.055,0.333-2.12,0.486-3.185
			c0.133-0.932,0.312-1.843,0.404-2.79c0.195-1.976,0.297-3.958,0.302-5.944c0-0.051,0.005-0.097,0.005-0.148
			c0-19.261-8.822-36.465-22.635-47.795c-0.691-0.568-1.418-1.06-2.125-1.592c-0.901-0.676-1.787-1.377-2.729-2.007
			c-0.865-0.579-1.761-1.08-2.647-1.608c-0.845-0.507-1.669-1.034-2.54-1.5c-0.906-0.486-1.838-0.896-2.765-1.331
			c-0.901-0.425-1.787-0.876-2.714-1.26c-0.901-0.374-1.818-0.671-2.734-0.998c-0.988-0.358-1.966-0.732-2.975-1.039
			c-0.906-0.276-1.833-0.476-2.749-0.707c-1.034-0.261-2.058-0.553-3.118-0.763c-1.055-0.21-2.12-0.333-3.185-0.486
			c-0.932-0.133-1.843-0.312-2.79-0.404c-1.976-0.195-3.958-0.297-5.944-0.302c-0.051,0-0.097-0.005-0.148-0.005
			c-19.261,0-36.465,8.822-47.795,22.636c-0.568,0.691-1.06,1.418-1.592,2.125c-0.676,0.901-1.377,1.787-2.007,2.729
			c-0.579,0.865-1.08,1.761-1.608,2.647c-0.507,0.845-1.034,1.669-1.5,2.54c-0.481,0.906-0.891,1.833-1.326,2.755
			c-0.43,0.906-0.881,1.797-1.265,2.729c-0.369,0.896-0.666,1.807-0.993,2.714c-0.358,0.993-0.737,1.976-1.044,2.99
			c-0.276,0.906-0.476,1.833-0.707,2.749c-0.261,1.034-0.553,2.058-0.763,3.118c-0.21,1.055-0.333,2.12-0.486,3.185
			c-0.133,0.932-0.312,1.843-0.404,2.79c-0.195,1.976-0.297,3.958-0.302,5.944c0,0.051-0.005,0.097-0.005,0.148
			C270.702,103.9,279.519,121.098,293.332,132.434z M288.801,84.644v-0.005c0-12.068,4.89-22.989,12.8-30.899l-8.013-8.008
			c9.969-9.969,23.731-16.143,38.907-16.143v11.356c12.068,0,22.989,4.89,30.899,12.8l8.013-8.013
			c9.969,9.969,16.143,23.731,16.143,38.907h-11.356c0,12.068-4.89,22.989-12.8,30.899l8.013,8.013
			c-9.969,9.969-23.731,16.143-38.907,16.143v-11.356c-12.068,0-22.989-4.89-30.899-12.8l-8.013,8.013
			c-9.969-9.969-16.143-23.731-16.143-38.907H288.801z"/>
		<path d="M275.059,166.682l1.29,0.328c0.901,0.215,1.792,0.44,2.683,0.707c0.666,0.2,1.3,0.435,1.94,0.666
			c-6.477-9.774-10.266-21.478-10.266-34.079v16.128c0,5.443,0.773,10.691,2.094,15.718
			C273.549,166.318,274.301,166.487,275.059,166.682z"/>
		<path d="M288.781,171.474l1.116,0.532c0.937,0.43,1.874,0.87,2.79,1.362c0.829,0.44,1.638,0.927,2.442,1.418l1.326,0.794
			c0.87,0.512,1.736,1.029,2.58,1.597c0.937,0.625,1.843,1.306,2.749,1.997l0.558,0.425c1.208,0.87,1.91,1.393,2.596,1.951
			c1.951,1.603,3.779,3.318,5.54,5.084c6.845,2.616,14.244,4.106,22.011,4.106c34.13,0,61.798-27.668,61.798-61.798v-16.128
			c0.005,34.14-27.663,61.804-61.793,61.804c-17.065,0-32.512-6.917-43.699-18.099c-11.182-11.182-18.099-26.634-18.099-43.699
			v16.128c0,16.097,6.205,30.71,16.292,41.708C287.588,170.926,288.187,171.187,288.781,171.474z"/>
		<circle cx="332.495" cy="84.639" r="30.899"/>
		<path d="M195.412,146.437c34.13,0,61.798-27.668,61.798-61.798V68.511c0,34.13-27.669,61.798-61.798,61.798
			c-17.065,0-32.512-6.917-43.699-18.099c-11.182-11.182-18.099-26.634-18.099-43.699v16.128c0,17.065,6.917,32.512,18.099,43.699
			C162.895,139.52,178.348,146.437,195.412,146.437z"/>
		<path d="M270.702,165.745c0.297,0.051,0.599,0.087,0.896,0.143c-0.543-3.297-0.896-6.656-0.896-10.107V165.745z"/>
		<path d="M156.25,109.599c0.701,0.573,1.439,1.075,2.156,1.613c0.891,0.671,1.766,1.362,2.698,1.981
			c0.87,0.584,1.777,1.091,2.673,1.623c0.835,0.497,1.649,1.024,2.509,1.485c0.911,0.486,1.853,0.901,2.78,1.341
			c0.896,0.425,1.782,0.87,2.703,1.254c0.901,0.374,1.818,0.671,2.734,0.998c0.988,0.358,1.966,0.732,2.975,1.039
			c0.906,0.276,1.833,0.476,2.749,0.707c1.034,0.261,2.058,0.553,3.118,0.763c1.055,0.21,2.12,0.333,3.185,0.486
			c0.932,0.133,1.843,0.312,2.79,0.404c1.976,0.195,3.958,0.297,5.944,0.302c0.051,0,0.097,0.005,0.148,0.005
			c19.261,0,36.459-8.817,47.795-22.635c0.573-0.696,1.065-1.428,1.603-2.145c0.676-0.896,1.367-1.777,1.997-2.714
			c0.579-0.865,1.08-1.761,1.608-2.647c0.507-0.845,1.034-1.669,1.5-2.54c0.486-0.906,0.896-1.838,1.331-2.765
			c0.425-0.901,0.876-1.787,1.26-2.714c0.374-0.901,0.671-1.818,0.998-2.734c0.358-0.988,0.732-1.966,1.039-2.975
			c0.276-0.906,0.476-1.833,0.707-2.749c0.261-1.034,0.553-2.058,0.763-3.118c0.21-1.055,0.333-2.12,0.486-3.185
			c0.133-0.932,0.312-1.843,0.404-2.79c0.195-1.976,0.297-3.958,0.302-5.944c0-0.051,0.005-0.097,0.005-0.148
			c0-19.261-8.822-36.465-22.636-47.795c-0.691-0.568-1.418-1.06-2.125-1.592c-0.901-0.676-1.787-1.377-2.729-2.007
			c-0.865-0.579-1.761-1.08-2.647-1.608c-0.845-0.507-1.669-1.034-2.539-1.5c-0.906-0.486-1.838-0.896-2.765-1.331
			c-0.901-0.425-1.787-0.875-2.714-1.26c-0.901-0.374-1.818-0.671-2.734-0.998c-0.988-0.358-1.966-0.732-2.975-1.039
			c-0.906-0.276-1.833-0.476-2.749-0.707c-1.034-0.261-2.058-0.553-3.118-0.763c-1.055-0.21-2.12-0.333-3.185-0.486
			c-0.932-0.133-1.843-0.312-2.79-0.404c-1.976-0.195-3.958-0.297-5.944-0.302c-0.051,0-0.097-0.005-0.148-0.005
			c-19.261,0-36.465,8.822-47.795,22.635c-0.568,0.691-1.06,1.418-1.592,2.125c-0.676,0.901-1.377,1.787-2.007,2.729
			c-0.579,0.865-1.08,1.761-1.608,2.647c-0.507,0.845-1.034,1.669-1.5,2.539c-0.481,0.906-0.891,1.833-1.326,2.755
			c-0.43,0.906-0.881,1.797-1.265,2.729c-0.369,0.896-0.666,1.807-0.993,2.714c-0.358,0.993-0.737,1.976-1.044,2.99
			c-0.276,0.906-0.476,1.833-0.707,2.749c-0.261,1.034-0.553,2.058-0.763,3.118c-0.21,1.055-0.333,2.12-0.486,3.185
			c-0.133,0.932-0.312,1.843-0.404,2.79c-0.195,1.976-0.297,3.958-0.302,5.944c0,0.051-0.005,0.097-0.005,0.148
			C133.614,81.07,142.436,98.268,156.25,109.599z M151.718,61.804c0-12.068,4.89-22.989,12.8-30.899l-8.013-8.013
			c9.969-9.969,23.731-16.143,38.907-16.143v11.356c12.068,0,22.989,4.89,30.899,12.8l8.013-8.013
			c9.969,9.969,16.143,23.731,16.143,38.907h-11.356c0,12.068-4.89,22.989-12.8,30.899l8.013,8.013
			c-9.969,9.969-23.731,16.143-38.907,16.143v-11.356c-12.068,0-22.989-4.89-30.899-12.8l-8.013,8.013
			c-9.969-9.969-16.143-23.731-16.143-38.907H151.718z"/>
		<circle cx="195.412" cy="61.804" r="30.899"/>
		<path d="M133.619,162.309v16.128c0,17.065,6.917,32.512,18.099,43.699c8.151,8.151,18.586,13.993,30.239,16.589
			c0.031-2.13,0.128-4.255,0.338-6.364c0.087-0.881,0.215-1.761,0.353-2.637l0.225-1.526c0.143-1.05,0.297-2.099,0.507-3.139
			c0.133-0.681,0.317-1.377,0.486-2.068c-12.426-2.35-23.557-8.387-32.148-16.983C140.536,194.826,133.619,179.374,133.619,162.309z
			"/>
		<path d="M332.495,260.536v2.068c0,1.69-0.056,3.364-0.164,5.028h0.164v9.032c34.13,0,61.798-27.669,61.798-61.798v-16.128
			C394.294,232.868,366.625,260.536,332.495,260.536z"/>
		<path d="M332.495,282.015v1.746c0,1.69-0.056,3.364-0.164,5.028h0.164v9.359c34.13,0,61.798-27.668,61.798-61.798v-16.128
			C394.294,254.346,366.625,282.015,332.495,282.015z"/>
		<path d="M332.495,239.058c-0.015,0-0.026,0-0.041,0c0,0.241,0.041,0.476,0.041,0.717l-0.01,0.579
			c-0.015,2.053-0.118,4.096-0.297,6.129h0.307v8.709c34.13,0,61.798-27.669,61.798-61.798v-16.128
			C394.294,211.389,366.625,239.058,332.495,239.058z"/>
		<path d="M63.552,398.377c0.701,0.573,1.439,1.075,2.156,1.613c0.891,0.671,1.766,1.362,2.698,1.981
			c0.87,0.584,1.777,1.091,2.673,1.623c0.835,0.497,1.649,1.024,2.509,1.485c0.911,0.486,1.853,0.901,2.78,1.341
			c0.896,0.425,1.782,0.87,2.703,1.254c0.901,0.374,1.818,0.671,2.734,0.998c0.988,0.358,1.966,0.732,2.975,1.039
			c0.906,0.276,1.833,0.476,2.749,0.707c1.034,0.261,2.058,0.553,3.118,0.763c1.055,0.21,2.12,0.333,3.185,0.486
			c0.932,0.133,1.843,0.312,2.79,0.404c1.976,0.195,3.958,0.297,5.944,0.302c0.051,0,0.097,0.005,0.148,0.005
			c19.261,0,36.46-8.817,47.795-22.635c0.573-0.696,1.065-1.428,1.603-2.145c0.676-0.896,1.367-1.777,1.997-2.714
			c0.579-0.865,1.08-1.761,1.608-2.647c0.507-0.845,1.034-1.669,1.5-2.539c0.486-0.906,0.896-1.838,1.331-2.765
			c0.425-0.901,0.876-1.787,1.26-2.714c0.374-0.901,0.671-1.818,0.998-2.734c0.358-0.988,0.732-1.966,1.039-2.975
			c0.276-0.906,0.476-1.833,0.707-2.749c0.261-1.034,0.553-2.058,0.763-3.118c0.21-1.055,0.333-2.12,0.486-3.185
			c0.133-0.932,0.312-1.843,0.404-2.79c0.195-1.976,0.297-3.958,0.302-5.944c0-0.051,0.005-0.097,0.005-0.148
			c0-19.256-8.817-36.454-22.635-47.79c-0.691-0.568-1.418-1.06-2.125-1.592c-0.901-0.676-1.787-1.377-2.729-2.007
			c-0.865-0.579-1.761-1.08-2.647-1.608c-0.845-0.507-1.669-1.034-2.54-1.5c-0.906-0.486-1.838-0.896-2.765-1.331
			c-0.901-0.425-1.787-0.875-2.714-1.26c-0.901-0.374-1.818-0.671-2.734-0.998c-0.988-0.358-1.966-0.732-2.975-1.039
			c-0.906-0.276-1.833-0.476-2.749-0.707c-1.034-0.261-2.058-0.553-3.118-0.763c-1.055-0.21-2.12-0.333-3.185-0.486
			c-0.932-0.133-1.843-0.312-2.79-0.404c-1.976-0.195-3.958-0.297-5.944-0.302c-0.051,0-0.097-0.005-0.148-0.005
			c-19.261,0-36.465,8.822-47.795,22.635c-0.568,0.691-1.06,1.418-1.592,2.125c-0.676,0.901-1.377,1.787-2.007,2.729
			c-0.579,0.865-1.08,1.761-1.608,2.647c-0.507,0.845-1.034,1.669-1.5,2.54c-0.481,0.906-0.891,1.833-1.326,2.755
			c-0.43,0.906-0.881,1.797-1.265,2.729c-0.369,0.896-0.666,1.807-0.993,2.714c-0.358,0.993-0.737,1.976-1.044,2.99
			c-0.276,0.906-0.476,1.833-0.707,2.749c-0.261,1.034-0.553,2.058-0.763,3.118c-0.21,1.055-0.333,2.12-0.486,3.185
			c-0.133,0.932-0.312,1.843-0.404,2.79c-0.195,1.976-0.297,3.958-0.302,5.944c0,0.051-0.005,0.097-0.005,0.148
			C40.916,369.843,49.733,387.041,63.552,398.377z M59.021,350.587c0-12.068,4.89-22.989,12.8-30.899l-8.013-8.013
			c9.969-9.969,23.731-16.143,38.907-16.143v11.356c12.068,0,22.989,4.89,30.899,12.8l8.013-8.013
			c9.969,9.969,16.143,23.731,16.143,38.907h-11.356c0,12.068-4.89,22.989-12.8,30.899l8.013,8.013
			c-9.969,9.969-23.731,16.143-38.907,16.143v-11.356c-12.068,0-22.989-4.89-30.899-12.8l-8.013,8.013
			c-9.969-9.969-16.143-23.731-16.143-38.907H59.021z"/>
		<path d="M332.495,153.139c-17.065,0-32.512-6.917-43.699-18.099c-11.182-11.182-18.099-26.634-18.099-43.699v16.128
			c0,17.065,6.917,32.512,18.099,43.699c11.182,11.182,26.634,18.099,43.699,18.099c34.13,0,61.798-27.668,61.798-61.798V91.341
			C394.294,125.476,366.625,153.139,332.495,153.139z"/>
		<circle cx="257.211" cy="239.77" r="30.899"/>
		<path d="M332.495,217.574c-1.172,0-2.319-0.113-3.477-0.174c1.633,5.258,2.688,10.706,3.139,16.287
			c0.113,0,0.225,0.015,0.338,0.015c34.13,0,61.798-27.668,61.798-61.798v-16.128C394.294,189.911,366.625,217.574,332.495,217.574z
			"/>
		<path d="M332.495,196.096c-5.361,0-10.532-0.753-15.493-2.038c4.198,5.478,7.531,11.515,10.071,17.894
			c1.792,0.154,3.594,0.271,5.422,0.271c34.13,0,61.798-27.668,61.798-61.798v-16.128
			C394.294,168.433,366.625,196.096,332.495,196.096z"/>
		<path d="M296.374,191.974c-0.691-0.568-1.418-1.06-2.125-1.592c-0.901-0.676-1.787-1.377-2.729-2.007
			c-0.865-0.579-1.761-1.08-2.647-1.608c-0.845-0.507-1.669-1.034-2.54-1.5c-0.906-0.486-1.838-0.896-2.765-1.331
			c-0.901-0.425-1.787-0.876-2.714-1.26c-0.901-0.374-1.818-0.671-2.734-0.998c-0.988-0.358-1.966-0.732-2.975-1.039
			c-0.906-0.276-1.833-0.476-2.749-0.707c-1.034-0.261-2.058-0.553-3.118-0.763c-1.055-0.21-2.12-0.333-3.185-0.486
			c-0.932-0.133-1.843-0.312-2.79-0.404c-1.976-0.195-3.958-0.297-5.944-0.302c-0.051,0-0.097-0.005-0.148-0.005
			c-19.261,0-36.465,8.822-47.795,22.635c-0.568,0.691-1.06,1.418-1.592,2.125c-0.676,0.901-1.377,1.787-2.007,2.729
			c-0.579,0.865-1.08,1.761-1.608,2.647c-0.507,0.845-1.034,1.669-1.5,2.539c-0.481,0.906-0.891,1.833-1.326,2.755
			c-0.43,0.906-0.881,1.797-1.265,2.729c-0.369,0.896-0.666,1.807-0.993,2.714c-0.358,0.993-0.737,1.976-1.044,2.99
			c-0.276,0.906-0.476,1.833-0.707,2.749c-0.261,1.034-0.553,2.058-0.763,3.118c-0.21,1.055-0.333,2.12-0.486,3.185
			c-0.133,0.932-0.312,1.843-0.404,2.79c-0.195,1.976-0.297,3.958-0.302,5.944c0,0.051-0.005,0.097-0.005,0.148
			c0,19.261,8.817,36.459,22.636,47.795c0.701,0.573,1.439,1.075,2.156,1.613c0.891,0.671,1.766,1.362,2.698,1.981
			c0.87,0.584,1.777,1.091,2.673,1.623c0.835,0.497,1.649,1.024,2.509,1.485c0.911,0.486,1.853,0.901,2.78,1.341
			c0.896,0.425,1.782,0.87,2.703,1.254c0.901,0.374,1.818,0.671,2.734,0.998c0.988,0.358,1.966,0.732,2.975,1.039
			c0.906,0.276,1.833,0.476,2.749,0.707c1.034,0.261,2.058,0.553,3.118,0.763c1.055,0.21,2.12,0.333,3.185,0.486
			c0.932,0.133,1.843,0.312,2.79,0.404c1.976,0.195,3.958,0.297,5.944,0.302c0.051,0,0.097,0.005,0.148,0.005
			c19.261,0,36.46-8.817,47.795-22.635c0.573-0.696,1.065-1.429,1.603-2.145c0.676-0.896,1.367-1.777,1.997-2.714
			c0.579-0.865,1.08-1.761,1.608-2.647c0.507-0.845,1.034-1.669,1.5-2.539c0.486-0.906,0.896-1.838,1.331-2.765
			c0.425-0.901,0.875-1.787,1.26-2.714c0.374-0.901,0.671-1.818,0.998-2.734c0.358-0.988,0.732-1.966,1.039-2.975
			c0.276-0.906,0.476-1.833,0.707-2.749c0.261-1.034,0.553-2.058,0.763-3.118c0.21-1.055,0.333-2.12,0.486-3.185
			c0.133-0.932,0.312-1.843,0.404-2.79c0.195-1.976,0.297-3.958,0.302-5.944c0-0.051,0.005-0.097,0.005-0.148
			C319.009,220.508,310.188,203.31,296.374,191.974z M300.905,239.77c0,12.068-4.89,22.989-12.8,30.899l8.013,8.013
			c-9.969,9.969-23.731,16.143-38.907,16.143v-11.356c-12.068,0-22.989-4.89-30.899-12.8l-8.013,8.013
			c-9.969-9.969-16.143-23.731-16.143-38.907h11.356c0-12.068,4.89-22.989,12.8-30.899l-8.013-8.013
			c9.969-9.969,23.731-16.143,38.907-16.143v11.356c12.068,0,22.989,4.89,30.899,12.8l8.013-8.013
			c9.969,9.969,16.143,23.731,16.143,38.907H300.905z"/>
		<path d="M133.619,138.86v16.128c0,17.065,6.917,32.512,18.099,43.699c9.042,9.042,20.9,15.222,34.12,17.285
			c0.133-0.379,0.251-0.758,0.389-1.137l0.435-1.208c0.317-0.901,0.64-1.797,1.003-2.683c0.364-0.876,0.778-1.761,1.203-2.642
			l0.307-0.645c0.717-1.531,1.147-2.447,1.628-3.349c0.486-0.911,0.993-1.741,1.5-2.575l0.655-1.096
			c0.021-0.031,0.041-0.061,0.061-0.097c-16.108-0.625-30.653-7.332-41.303-17.981C140.536,171.377,133.619,155.925,133.619,138.86z
			"/>
		<path d="M151.718,229.458c-11.182-11.182-18.099-26.634-18.099-43.694v16.128c0,17.065,6.917,32.512,18.099,43.699
			c8.141,8.141,18.565,13.983,30.208,16.579v-15.693h0.297c-0.01-0.123-0.005-0.246-0.015-0.369
			C170.447,243.543,159.926,237.665,151.718,229.458z"/>
		<path d="M181.921,292.936c-11.643-2.596-22.062-8.433-30.208-16.579c-11.182-11.182-18.099-26.634-18.099-43.699v16.128
			c0,17.065,6.917,32.512,18.099,43.699c8.182,8.182,18.667,14.049,30.382,16.625c-0.077-1.393-0.174-2.785-0.174-4.193V292.936z"/>
		<path d="M102.72,419.082c-17.065,0-32.512-6.917-43.699-18.099c-11.182-11.182-18.099-26.634-18.099-43.699v16.128
			c0,17.065,6.917,32.512,18.099,43.699c11.182,11.182,26.634,18.099,43.699,18.099c34.13,0,61.798-27.668,61.798-61.798v-16.128
			C164.513,391.414,136.845,419.082,102.72,419.082z"/>
		<path d="M257.211,308.27c-17.065,0-32.512-6.917-43.699-18.099c-11.182-11.182-18.099-26.634-18.099-43.699V262.6
			c0,17.065,6.917,32.512,18.099,43.699c11.182,11.182,26.634,18.099,43.699,18.099c34.13,0,61.798-27.668,61.798-61.798v-16.128
			C319.009,280.602,291.341,308.27,257.211,308.27z"/>
		<path d="M257.211,373.069c-17.065,0-32.512-6.917-43.699-18.099c-11.182-11.182-18.099-26.634-18.099-43.699v16.128
			c0,17.065,6.917,32.512,18.099,43.699c11.182,11.182,26.634,18.099,43.699,18.099c34.13,0,61.798-27.668,61.798-61.798V311.27
			C319.009,345.4,291.341,373.069,257.211,373.069z"/>
		<path d="M257.211,329.426c-17.065,0-32.512-6.917-43.699-18.099c-11.182-11.182-18.099-26.634-18.099-43.699v16.128
			c0,17.065,6.917,32.512,18.099,43.699c11.182,11.182,26.634,18.099,43.699,18.099c34.13,0,61.798-27.668,61.798-61.798v-16.128
			C319.009,301.758,291.341,329.426,257.211,329.426z"/>
		<path d="M257.211,350.582c-17.065,0-32.512-6.917-43.699-18.099c-11.182-11.182-18.099-26.634-18.099-43.699v16.128
			c0,17.065,6.917,32.512,18.099,43.699c11.182,11.182,26.634,18.099,43.699,18.099c34.13,0,61.798-27.669,61.798-61.798v-16.128
			C319.009,322.913,291.341,350.582,257.211,350.582z"/>
	</g>
</g>
<g>
</g>
<g>
</g>
<g>
</g>
<g>
</g>
<g>
</g>
<g>
</g>
<g>
</g>
<g>
</g>
<g>
</g>
<g>
</g>
<g>
</g>
<g>
</g>
<g>
</g>
<g>
</g>
<g>
</g>
</svg>
