<?xml version="1.0"?>
<svg xmlns:rdf="http://www.w3.org/1999/02/22-rdf-syntax-ns#" xmlns="http://www.w3.org/2000/svg" xmlns:cc="http://web.resource.org/cc/" xmlns:dc="http://purl.org/dc/elements/1.1/" id="svg5296" viewBox="0 0 55.999 65.645" version="1.0">
  <g id="layer1" transform="translate(-253.68 -559.11)">
    <g id="g4876" transform="matrix(.85924 0 0 .85924 253.51 380.99)">
      <g id="g4804">
        <path id="path4796" transform="matrix(1.2488 0 0 1.1435 42.71 -15.942)" fill="#c17d11" d="m17.766 235.78c0 14.6-10.683 25.39-24.641 25.39s-27.035-11.97-25.286-26.45c1.614-13.37 11.214-27.07 25.172-26.95 14.072 0.12 24.593 13.25 24.755 28.01z"/>
        <path id="path4798" d="m28.5 220.59c-1.5-2.25-9-9.75-9-9.75l13.75 1-3 3.5 2.5 1.25 9.25-3 4.25 1 6.25-2-6.75 8-4.25 2-13-2z" fill-rule="evenodd" stroke="#000" stroke-width="1px" fill="#c17d11"/>
        <path id="path4800" fill-rule="evenodd" fill="#8f5902" d="m22.25 210.59l8.75-2.75 1.75 2.25 10.471-1.69-2.221 2.69 0.75 0.9 7.5-3.15 3.75 0.25 1 2-2 2.25-5.75 1.25-3.75-1.25-10 3.25-2.25-1.25 3.5-3.75-11.5-1z"/>
        <path id="path4802" d="m25.698 223.01c0.265-0.35 2.321-2.13 2.321-2.13l13.877 1.72 12.993-4.06 3.536 0.66-0.663 2.08-12.551 1.37-4.287 1.99-15.226-1.63z" fill-rule="evenodd" stroke="#000" stroke-width=".6" fill="#edd400"/>
      </g>
      <path id="path4545" d="m35.2 232.79c0.453 1.43 0.926 2.83 1.725 3.92 3.469-0.51 5.107-0.31 8.309 0.47-0.036 0.92 1.079 0.69 1.255 1.41 0.29 1.18-0.625 1.15-0.941 1.72-3.487 0.63-4.171-3.05-7.996-1.41 0.761 1.59 1.06 3.65 2.038 5.02 2.508-0.32 5.452 0.2 7.212 1.25 1.262 0.76 2.481 1.57 2.195 3.61-0.093 0.66-0.267 1.87-0.627 2.66-0.095 0.21-0.445 0.23-0.627 0.47-0.324 0.44-0.446 1.2-0.627 1.42-0.574 0.69-1.42 0.66-1.882 1.72-0.886-0.15-0.87 0.59-1.411 0.78 0.208 0.85 0.397 2.21 1.098 2.98-0.34 1.19 0.756 2.17-0.627 2.51-1.174-0.97-1.034-3.25-1.725-4.7-1.754 0.2-3.188 0.75-4.547 0.94-0.109 1.87 1.621 3.08 0.784 4.7-2.356 0.02-1.068-3.66-2.508-4.7-3.41 0.23-6.109 0.01-7.996-1.57-0.536-1.07-0.317-2.41 0.783-2.66 1.999-0.46 4.781 3.74 6.899 2.19-0.679-1.78-0.745-4.17-1.725-5.64-4.675 0.91-9.291-1.88-7.682-7.22 0.906-0.58 1.342-1.71 2.195-2.35 0.52-0.39 1.241-0.31 1.568-0.94 0.033-2.13-2.266-3.22-1.411-5.17 1.926 0.37 1.367 3.23 2.508 4.39 1.68-0.15 2.622-1.04 4.077-1.41-0.224-1.63-1.913-2.67-1.098-4.39h0.784zm-2.979 7.99c0.458 1.69 1.079 3.21 2.038 4.39 1.453-0.53 2.667-0.43 4.077-1.09-0.341-1.81-1.503-2.79-1.725-4.71-2.003-0.07-3.047 0.82-4.39 1.41zm-1.254 0.63c-1.043 1.1-2.81 1.48-2.665 3.76 1.281 1.03 2.996 0.45 4.546 0.32-0.337-1.65-0.928-3.05-1.881-4.08zm10.348 7.84c0.953 1.14 1.147 3.03 1.881 4.39 1.946-0.72 4.566-2.57 3.136-5.17-1.485-0.27-4.64-0.93-5.017 0.78zm-5.801 1.1c0.879 1.47 0.762 3.94 1.881 5.17 1.579-0.31 3.21-0.4 4.547-1.25-0.331-1.5-0.722-2.94-1.411-4.08-0.037-0.69-0.113-1.35-0.784-1.41-1.126 0.43-3.617 0.18-4.233 1.57z" clip-rule="evenodd" fill-rule="evenodd"/>
      <path id="path4559" d="m19.755 261.19c0.556 0.92-0.278 3.13-1.568 2.66-0.071-1.48 0.244-2.58 1.568-2.66z" clip-rule="evenodd" fill-rule="evenodd"/>
      <path id="path4561" d="m34.649 267.46c-0.074 0.49 0.422 0.41 0.47 0.78-0.312 0.68-0.603 1.38-1.724 1.26-0.47-1.16 0.314-1.84 1.254-2.04z" clip-rule="evenodd" fill-rule="evenodd"/>
      <path id="path4563" d="m24.615 267.61c0.551 0.8 0.115 2.12-0.627 2.51-1.267-0.31-0.54-2.69 0.627-2.51z" clip-rule="evenodd" fill-rule="evenodd"/>
      <path id="path4691" d="m44.632 209.14c-0.75 0.83-1.775 1.36-2.822 1.72 0.495 0.64 1.297 0.05 1.882-0.11 2.059-0.77 3.977-2.1 6.237-2.19 1.02-0.06 2.05-0.09 3.068-0.03 1.478 0.44 2.3 2.42 1.432 3.74-0.579 0.46-1.151 0.91-1.473 1.57-0.558 0.29-1.044 0.67-1.243 1.27-0.594 0.24-1.126 0.53-1.405 1.14-1.073 1.36-2.581 2.34-3.514 3.82-0.024 0.52 0.87 0.01 1.124-0.14 0.619-0.46 1.356-0.76 2.136-0.71 0.669-0.17 1.228-0.64 1.928-0.74 1.767-0.41 3.594-0.66 5.41-0.54 0.878 0.1 1.95 0.22 2.455 1.05 0.375 0.57 0.105 1.36-0.478 1.67-0.534 0.35-1.224 0.45-1.656 0.96-0.32 0.34-0.757 0.64-1.249 0.54-0.717 0.05-1.305 0.57-2.033 0.58-2.649 0.34-5.34-0.29-7.974 0.25-0.318 0.09-1.202-0.57-1.049 0.04 0.418 0.43 1.121 0.45 1.467 0.96 0.476 0.48 1.08 0.66 1.694 0.81 0.672 0.39 1.252 0.91 1.898 1.34 2.459 1.8 4.84 3.77 6.708 6.2 4.779 4.6 6.299 8 6.577 12.69 0.334 0.5 0.563 1.06 0.472 1.66 0.162 0.63 0.681 1.12 0.722 1.79 0.303 1.75 0.006 3.53 0.256 5.28 0.208 2.07 0.275 4.18-0.107 6.23-0.194 0.97-0.254 1.99-0.626 2.91-0.272 0.62-0.788 1.13-0.851 1.83-0.135 0.88-0.139 1.8-0.602 2.58-0.749 1.47-2.039 2.63-2.549 4.23-1.069 0.46-1.738 1.48-2.678 2.12-4.432 3.75-9.425 6.97-15.005 8.69-5.546 1.74-11.555 1.73-17.181 0.36-5.426-1.3-10.534-3.69-15.324-6.52-1.1524-0.56-1.5954-1.97-2.8049-2.46-1.6628-2.28-3.8417-4.25-4.9322-6.91-0.4004-0.62-0.2383-1.56-0.9402-1.99-1.3099-5.6-1.8224-8.5-1.0262-13.2-0.05829-0.76 0.00745-1.53 0.40848-2.19 0.36692-0.96 0.60022-1.97 0.68902-2.99 0.6882-0.57 1.0323-1.47 1.0975-2.35 0.7003-0.37 0.8296-1.21 1.0975-1.88 0.0109-0.46-0.1529-1.42 0.5293-1.41 0.7223 0.14 1.0383-0.82 1.297-1.34 0.3368-0.49 0.9675-0.73 1.1098-1.38 0.2245-0.61 0.796-0.9 1.243-1.31 0.5389-0.64 0.7815-1.49 1.3421-2.12 0.6738-0.83 1.4628-1.56 1.9928-2.5 0.28-0.46 0.887-0.47 1.177-0.93 0.379-0.42 0.736-0.89 1.259-1.14 0.531-0.41 0.572-1.2 1.157-1.57 1.134-0.85 2.237-1.74 3.414-2.53 2.212-1.51 4.697-3.27 7.4-3.54 2.97-0.34 6.016-0.44 8.973-0.19 1.89 0.2 3.715 0.72 5.62 0.61 0.678-0.14 3.973-1.58 4.68-1.53 0.857-0.07 0.026 2.42 0.511 1.61-1.107-0.15-3.878 0.73-4.939 0.86-0.657-0.39-1.376 0.7-2.054 0.55-4.114 0.21-8.832-2.83-12.381-1.2-0.803-0.51 0.086-3.12-0.505-3.85-0.549-0.72-1.105-1.46-1.826-2.02-0.718-0.07-0.826-0.89-1.174-1.37-0.957-1.44-2.442-2.41-3.461-3.8-0.113-0.67 0.077-1.38 0.512-1.9 0.795-0.16 1.601-0.27 2.386-0.49 3.173-0.75 6.309-1.81 9.59-1.98 0.693 0.21 0.69 1.26 1.452 1.36 0.787 0 1.531-0.32 2.289-0.49 2.222-0.68 4.508-1.57 6.875-1.25 1.007 0.15 1.964 0.77 2.295 1.77zm-11.916 1.57c-0.52-0.49-1.169-0.81-1.724-1.26-2.557 0.2-4.965 1.25-7.526 1.41-0.218 0.59-1.403 0.22-1.331 0.95 3.634 0.26 7.202-1 10.835-0.63 0.861 0.12 1.728 0.39 2.412 0.94 0.192 0.89-0.007 1.93 0.617 2.68 0.677 0.15 1.176-0.53 1.827-0.6 0.663-0.28 1.352-0.82 1.342-1.61 0.179-1.19 1.266-1.92 2.23-2.48 0.252-0.2 1.042-0.54 0.857-0.81-3.224 0.13-6.333 1.12-9.539 1.41zm18.344-0.79c-1.083 0.04-2.175 0.1-3.234 0.35-0.566 0.59-1.44 0.54-2.186 0.55-0.688 0.2-1.229 0.76-1.959 0.83-0.679 0.19-1.373 0.35-2.028 0.62-0.586-0.05-1.778-0.16-1.606 0.76 0.386 0.45 1.026 0.01 1.476-0.13 0.509-0.19 1.084-0.46 1.626-0.29 0.597 0.38 0.762 1.29 1.524 1.44 1.293 0.14 2.458-0.65 3.742-0.6 0.585-0.01 1.193-0.13 1.647-0.52 0.618-0.4 1.353-0.51 2.053-0.67 0.596-0.21 1.213-0.61 1.431-1.22 0.035-0.74-0.792-1.14-1.436-1.12-0.35-0.02-0.7 0-1.05 0zm-23.988 3.14c-1.324 0.09-2.726-0.53-3.985 0.11-0.453 0.49 0.616 0.81 0.803 1.24 0.615 0.63 1.269 1.26 2.085 1.63-0.104 0.78 0.866 0.92 1.256 1.42 1.183 1.17 2.029 2.76 3.596 3.48 0.639 0.28 1.357 0.37 2.046 0.27-1.557-1.23-2.487-3.04-3.919-4.39-0.172-0.83-0.885-1.6-0.591-2.5 0.235-0.7 1.084-0.91 1.375-1.58-0.899 0.02-1.771 0.27-2.666 0.32zm3.136 2.19c1.367 0.59 2.899 0.33 4.299 0.02 0.636-0.23-0.081-0.89 0.08-1.37-0.129-0.79-1.15-0.29-1.678-0.29-1.063 0.23-1.957 0.87-2.701 1.64zm10.504-0.47c-0.122 0.59-0.805 0.58-1.277 0.64-0.558 0.08-0.915 0.58-1.418 0.8-1.7 0.92-3.649 1.18-5.536 1.43-0.306 0.09-1.199-0.03-0.607 0.4 0.849 0.88 2 1.57 2.402 2.79-0.041 0.61 0.354 1.3 1.041 1.06 2.906 0.2 5.918 0.34 8.709-0.64 0.572-0.37 0.925-0.98 1.432-1.42 1.557-1.63 3.133-3.24 4.662-4.9-2.417 0.45-4.959 0.86-7.369 0.16-1.201 0.79-1.308 2.35-2.017 3.49-0.482 0.46-0.667 1.08-0.925 1.63-0.531 0.54-1.308 0.03-0.875-0.63 0.258-0.86 0.897-1.53 1.333-2.3 0.091-0.7 0.545-1.19 0.93-1.72 0.116-0.35 0.423-1-0.216-0.79-0.089 0.01-0.18 0.02-0.269 0zm7.996 6.27c1.607 0.53 3.27-0.05 4.861-0.34 0.909-0.2 1.79-0.42 2.695-0.64 0.311-0.07 1.263-0.5 0.773-0.74-2.593 0.02-5.29 0.16-7.663 1.3-0.232 0.13-0.456 0.27-0.666 0.42zm4.547 9.41c0.059-0.51-0.445-0.77-0.788-0.89-0.314-0.64-0.925-1.01-1.574-1.22-0.661-0.42-0.901-1.34-1.718-1.54-0.63-0.24-1.198-0.62-1.769-0.96-0.688-0.22-1.176-0.76-1.596-1.31-0.402-0.62-1.275-0.89-1.832-0.31-0.465 0.43-1.041 0.68-1.66 0.77-1.785 0.33-3.609 0.12-5.404 0-1.533-0.14-3.074-0.19-4.603-0.37-1.975-0.27-3.922-0.81-5.709-1.69-0.537 0.41-1.072 0.87-1.725 1.09-1.023 1.33-2.559 2.17-3.449 3.61-0.729 0.05-1.162 0.83-1.822 1.03-1.731 1.71-3.227 3.65-5.077 5.24-0.151 0.92-1.13 1.3-1.579 2.03-1.031 1.4-1.909 2.89-2.9884 4.25-0.9641 1.26-2.0415 2.45-2.8549 3.81 0.0406 0.49 0.6646 0.91 0.164 1.42-0.379 0.8-0.9498 1.47-1.5213 2.13-0.1013 1.37-0.849 0.95-1.0829 3.91-0.4817 4.77-1.5351 7.53 1.1394 13.98 0.4835 0.48 0.7514 1.12 1.045 1.73 0.2429 0.66 0.8498 1.02 1.3928 1.34 0.1671 0.57 0.4509 1.15 1.1325 1.08 0.6888 0.28 0.5855 1.15 0.8608 1.73 0.361 0.62 1.125 0.8 1.682 1.2 0.946 0.55 1.8 1.23 2.73 1.8 0.786 0.4 1.703 0.63 2.311 1.31 0.83 0.73 1.995 0.79 2.917 1.35 0.421 0.64 1.277 0.31 1.878 0.57 0.767 0.78 1.889 0.97 2.892 1.28 1.663 0.43 3.38 0.6 5.091 0.71 0.914 0.78 2.207 0.65 3.327 0.6 0.657-0.2 1.164 0.35 1.767 0.34 0.943 0.05 1.887 0 2.82-0.15 0.916-0.13 1.845-0.23 2.769-0.14 1.034-0.06 1.926-0.88 2.994-0.66 2.213 0.01 4.074-1.45 6.234-1.72 0.621-0.74 1.578-1.1 2.509-1.25 0.744-0.82 1.815-1.19 2.77-1.69 0.374-0.65 0.861-1.23 1.482-1.66 0.812-0.67 1.688-1.32 2.243-2.24 0.052-0.55 0.744-0.72 0.77-1.3 0.244-0.66 0.531-1.36 1.142-1.76 0.458-0.5 0.348-1.27 0.794-1.79 0.437-0.41 0.528-0.88 0.58-1.44 0.409-0.36 0.608-0.82 0.699-1.38 0.161-0.78 0.467-1.52 0.745-2.26 0.385-1.06 0.447-2.2 0.642-3.3 0.339-2.56-0.063-5.14-0.29-7.69-0.06-1.04-0.23-2.06-0.544-3.05-3.643-6.99 2.661-1.62-5.804-12.48-0.462-0.44-0.989-0.9-1.153-1.55-0.898-0.95-2.044-1.6-2.979-2.51z" fill-rule="evenodd"/>
    </g>
  </g>
  <metadata>
    <rdf:RDF>
      <cc:Work>
        <dc:format>image/svg+xml</dc:format>
        <dc:type rdf:resource="http://purl.org/dc/dcmitype/StillImage"/>
        <cc:license rdf:resource="http://creativecommons.org/licenses/publicdomain/"/>
        <dc:publisher>
          <cc:Agent rdf:about="http://openclipart.org/">
            <dc:title>Openclipart</dc:title>
          </cc:Agent>
        </dc:publisher>
      </cc:Work>
      <cc:License rdf:about="http://creativecommons.org/licenses/publicdomain/">
        <cc:permits rdf:resource="http://creativecommons.org/ns#Reproduction"/>
        <cc:permits rdf:resource="http://creativecommons.org/ns#Distribution"/>
        <cc:permits rdf:resource="http://creativecommons.org/ns#DerivativeWorks"/>
      </cc:License>
    </rdf:RDF>
  </metadata>
</svg>
