<?xml version="1.0" encoding="iso-8859-1"?>
<!-- Generator: Adobe Illustrator 19.0.0, SVG Export Plug-In . SVG Version: 6.00 Build 0)  -->
<svg version="1.1" id="Layer_1" xmlns="http://www.w3.org/2000/svg" xmlns:xlink="http://www.w3.org/1999/xlink" x="0px" y="0px"
	 viewBox="0 0 475.996 475.996" style="enable-background:new 0 0 475.996 475.996;" xml:space="preserve">
<g>
	<g>
		<path d="M239.765,178.954c49.418,0,89.477-40.064,89.477-89.477C329.242,40.059,289.178,0,239.765,0
			c-49.418,0-89.477,40.059-89.477,89.477C150.287,138.89,190.346,178.954,239.765,178.954z M221.839,139.09l17.925-25.114
			l17.925,25.114H221.839z M215.921,76.124c4.91,0,9.467,1.49,13.261,4.029c0.108-0.169,0.189-0.353,0.302-0.517
			c-7.88-3.907-13.348-11.95-13.348-21.34c0-13.107,10.557-23.721,23.629-23.864c0.092,0,0.174-0.026,0.261-0.026
			c13.194,0,23.89,10.696,23.89,23.89c0,9.549-5.642,17.725-13.737,21.55c0.097,0.148,0.164,0.312,0.251,0.466
			c3.84-2.632,8.479-4.183,13.486-4.183c13.194,0,23.89,10.696,23.89,23.89c0,13.194-10.696,23.89-23.89,23.89
			c-13.194,0-23.89-10.696-23.89-23.89c0-0.307,0.077-0.589,0.087-0.891c-0.118,0.005-0.23,0.036-0.353,0.036
			c-0.015,0-0.026-0.005-0.041-0.005c0.01,0.292,0.087,0.563,0.087,0.86c0,13.194-10.696,23.89-23.89,23.89
			s-23.89-10.696-23.89-23.89C192.026,86.825,202.721,76.124,215.921,76.124z"/>
		<path d="M378.921,148.782c-49.418,0-89.477,40.059-89.477,89.477c0,49.418,40.059,89.477,89.477,89.477
			c49.418,0.005,89.477-40.054,89.477-89.472S428.339,148.782,378.921,148.782z M378.921,294.195l-47.483-55.931l47.478-55.931
			l47.483,55.931L378.921,294.195z"/>
		<path d="M239.765,297.042c-49.418,0-89.477,40.059-89.477,89.477c0,49.418,40.059,89.477,89.477,89.477
			s89.477-40.064,89.477-89.477C329.247,337.106,289.183,297.042,239.765,297.042z M221.839,429.189l17.925-25.114l17.925,25.114
			H221.839z M263.634,417.009c-13.184,0-23.869-10.685-23.869-23.869c0,13.184-10.685,23.869-23.869,23.869
			s-23.869-10.685-23.869-23.869c0-6.589,2.673-12.559,6.994-16.876l11.935-11.935l28.815-28.815l40.75,40.75
			c4.321,4.321,6.989,10.286,6.994,16.881C287.503,406.323,276.818,417.009,263.634,417.009z"/>
		<path d="M186.557,233.702c0-49.418-40.059-89.477-89.477-89.477c-49.423-0.005-89.482,40.059-89.482,89.477
			c0,49.418,40.059,89.477,89.477,89.477C146.493,323.18,186.557,283.121,186.557,233.702z M142.94,230.676
			c-1.208,2.857-2.954,5.427-5.115,7.588l-11.935,11.935l-28.815,28.815L68.26,250.199l-11.935-11.935
			c-4.321-4.321-6.989-10.286-6.994-16.881c0-13.184,10.685-23.869,23.869-23.869c13.184,0,23.869,10.685,23.869,23.869
			c0-6.589,2.673-12.559,6.994-16.881s10.286-6.994,16.875-6.994c6.589,0,12.559,2.673,16.881,6.994s6.994,10.286,6.994,16.881
			C144.814,224.681,144.148,227.82,142.94,230.676z"/>
	</g>
</g>
<g>
</g>
<g>
</g>
<g>
</g>
<g>
</g>
<g>
</g>
<g>
</g>
<g>
</g>
<g>
</g>
<g>
</g>
<g>
</g>
<g>
</g>
<g>
</g>
<g>
</g>
<g>
</g>
<g>
</g>
</svg>
